<?xml version="1.0" encoding="UTF-8"?>
<svg width="600px" height="15px" viewBox="0 0 600 15" version="1.1" xmlns="http://www.w3.org/2000/svg">
    <g stroke="none" fill="none">
        <path d="M0,0 L20,7.5 L0,15 L20,15 L40,7.5 L60,15 L80,7.5 L100,15 L120,7.5 L140,15 L160,7.5 L180,15 L200,7.5 L220,15 L240,7.5 L260,15 L280,7.5 L300,15 L320,7.5 L340,15 L360,7.5 L380,15 L400,7.5 L420,15 L440,7.5 L460,15 L480,7.5 L500,15 L520,7.5 L540,15 L560,7.5 L580,15 L600,7.5 L600,0 L580,7.5 L560,0 L540,7.5 L520,0 L500,7.5 L480,0 L460,7.5 L440,0 L420,7.5 L400,0 L380,7.5 L360,0 L340,7.5 L320,0 L300,7.5 L280,0 L260,7.5 L240,0 L220,7.5 L200,0 L180,7.5 L160,0 L140,7.5 L120,0 L100,7.5 L80,0 L60,7.5 L40,0 L20,7.5 L0,0 Z" fill="#B8860B"></path>
    </g>
</svg>